<svg width="400" height="300" viewBox="0 0 400 300" fill="none" xmlns="http://www.w3.org/2000/svg">
  <rect width="400" height="300" fill="#F8FAFC"/>
  <rect x="50" y="50" width="80" height="60" rx="8" fill="#3B82F6" opacity="0.1"/>
  <rect x="50" y="50" width="80" height="20" rx="4" fill="#3B82F6"/>
  <rect x="50" y="80" width="60" height="15" rx="2" fill="#3B82F6" opacity="0.6"/>
  <rect x="50" y="100" width="40" height="10" rx="2" fill="#3B82F6" opacity="0.4"/>
  
  <rect x="150" y="50" width="80" height="60" rx="8" fill="#10B981" opacity="0.1"/>
  <rect x="150" y="50" width="80" height="20" rx="4" fill="#10B981"/>
  <rect x="150" y="80" width="70" height="15" rx="2" fill="#10B981" opacity="0.6"/>
  <rect x="150" y="100" width="50" height="10" rx="2" fill="#10B981" opacity="0.4"/>
  
  <rect x="250" y="50" width="80" height="60" rx="8" fill="#F59E0B" opacity="0.1"/>
  <rect x="250" y="50" width="80" height="20" rx="4" fill="#F59E0B"/>
  <rect x="250" y="80" width="65" height="15" rx="2" fill="#F59E0B" opacity="0.6"/>
  <rect x="250" y="100" width="45" height="10" rx="2" fill="#F59E0B" opacity="0.4"/>
  
  <circle cx="100" cy="180" r="30" fill="#3B82F6" opacity="0.1"/>
  <circle cx="100" cy="180" r="20" fill="#3B82F6" opacity="0.3"/>
  <circle cx="100" cy="180" r="10" fill="#3B82F6"/>
  
  <rect x="200" y="160" width="120" height="40" rx="20" fill="#E5E7EB"/>
  <rect x="210" y="170" width="100" height="20" rx="10" fill="#3B82F6"/>
  
  <path d="M50 250 Q100 220 150 250 T250 250 T350 250" stroke="#3B82F6" stroke-width="3" fill="none" opacity="0.6"/>
  <circle cx="50" cy="250" r="4" fill="#3B82F6"/>
  <circle cx="150" cy="250" r="4" fill="#3B82F6"/>
  <circle cx="250" cy="250" r="4" fill="#3B82F6"/>
  <circle cx="350" cy="250" r="4" fill="#3B82F6"/>
</svg>
